<svg width="63" height="59" viewBox="0 0 63 59" fill="none" xmlns="http://www.w3.org/2000/svg">
<path d="M11.312 10.6H20.912V13.8H14.832V19.72H19.664V22.92H14.832V29.8H20.912V33H11.312V10.6ZM22.937 10.6H28.121C29.8703 10.6 31.1823 11.0693 32.057 12.008C32.9317 12.9467 33.369 14.3227 33.369 16.136V18.344C33.369 20.1573 32.9317 21.5333 32.057 22.472C31.1823 23.4107 29.8703 23.88 28.121 23.88H26.457V33H22.937V10.6ZM28.121 20.68C28.697 20.68 29.1237 20.52 29.401 20.2C29.6997 19.88 29.849 19.336 29.849 18.568V15.912C29.849 15.144 29.6997 14.6 29.401 14.28C29.1237 13.96 28.697 13.8 28.121 13.8H26.457V20.68H28.121ZM35.2808 10.6H38.8008V33H35.2808V10.6ZM46.397 33.32C44.7117 33.32 43.421 32.84 42.525 31.88C41.6503 30.92 41.213 29.5653 41.213 27.816V15.784C41.213 14.0347 41.6503 12.68 42.525 11.72C43.421 10.76 44.7117 10.28 46.397 10.28C48.0823 10.28 49.3623 10.76 50.237 11.72C51.133 12.68 51.581 14.0347 51.581 15.784V18.152H48.253V15.56C48.253 14.1733 47.6663 13.48 46.493 13.48C45.3197 13.48 44.733 14.1733 44.733 15.56V28.072C44.733 29.4373 45.3197 30.12 46.493 30.12C47.6663 30.12 48.253 29.4373 48.253 28.072V24.648H51.581V27.816C51.581 29.5653 51.133 30.92 50.237 31.88C49.3623 32.84 48.0823 33.32 46.397 33.32Z" fill="white"/>
<path d="M14.584 45C14.386 45 14.203 44.952 14.035 44.856C13.873 44.76 13.744 44.631 13.648 44.469C13.552 44.301 13.504 44.118 13.504 43.92V39.6C13.504 39.402 13.552 39.222 13.648 39.06C13.744 38.892 13.873 38.76 14.035 38.664C14.203 38.568 14.386 38.52 14.584 38.52H18.904C19.102 38.52 19.282 38.568 19.444 38.664C19.612 38.76 19.744 38.892 19.84 39.06C19.936 39.222 19.984 39.402 19.984 39.6V39.861H19.255V39.6C19.255 39.504 19.219 39.423 19.147 39.357C19.081 39.285 19 39.249 18.904 39.249H14.584C14.488 39.249 14.404 39.285 14.332 39.357C14.266 39.423 14.233 39.504 14.233 39.6V43.92C14.233 44.016 14.266 44.1 14.332 44.172C14.404 44.238 14.488 44.271 14.584 44.271H18.904C19 44.271 19.081 44.238 19.147 44.172C19.219 44.1 19.255 44.016 19.255 43.92V42.318H17.653V41.58H19.984V43.92C19.984 44.118 19.936 44.301 19.84 44.469C19.744 44.631 19.612 44.76 19.444 44.856C19.282 44.952 19.102 45 18.904 45H14.584ZM20.9927 45V39.6C20.9927 39.402 21.0407 39.222 21.1367 39.06C21.2327 38.892 21.3617 38.76 21.5237 38.664C21.6917 38.568 21.8747 38.52 22.0727 38.52H26.3927C26.5907 38.52 26.7707 38.568 26.9327 38.664C27.1007 38.76 27.2327 38.892 27.3287 39.06C27.4247 39.222 27.4727 39.402 27.4727 39.6V45H26.7437V42.633H21.7217V45H20.9927ZM21.7217 41.904H26.7437V39.6C26.7437 39.504 26.7077 39.423 26.6357 39.357C26.5697 39.285 26.4887 39.249 26.3927 39.249H22.0727C21.9767 39.249 21.8927 39.285 21.8207 39.357C21.7547 39.423 21.7217 39.504 21.7217 39.6V41.904ZM28.4981 45V38.52H29.4971L32.1881 41.724L34.8791 38.52H35.8781V45H35.1491V39.348L32.1881 42.867L29.2271 39.348V45H28.4981ZM36.8658 45V38.52H42.7788V39.249H37.5948V41.391H41.7618V42.129H37.5948V44.271H42.7788V45H36.8658ZM44.7734 45C44.5754 45 44.3924 44.952 44.2244 44.856C44.0624 44.76 43.9334 44.631 43.8374 44.469C43.7414 44.301 43.6934 44.118 43.6934 43.92V43.668H44.4224V43.92C44.4224 44.016 44.4554 44.1 44.5214 44.172C44.5934 44.238 44.6774 44.271 44.7734 44.271H49.0934C49.1894 44.271 49.2704 44.238 49.3364 44.172C49.4084 44.1 49.4444 44.016 49.4444 43.92V42.471C49.4444 42.375 49.4084 42.294 49.3364 42.228C49.2704 42.162 49.1894 42.129 49.0934 42.129H44.7734C44.5754 42.129 44.3924 42.081 44.2244 41.985C44.0624 41.883 43.9334 41.751 43.8374 41.589C43.7414 41.427 43.6934 41.247 43.6934 41.049V39.6C43.6934 39.402 43.7414 39.222 43.8374 39.06C43.9334 38.892 44.0624 38.76 44.2244 38.664C44.3924 38.568 44.5754 38.52 44.7734 38.52H49.0934C49.2914 38.52 49.4714 38.568 49.6334 38.664C49.8014 38.76 49.9334 38.892 50.0294 39.06C50.1254 39.222 50.1734 39.402 50.1734 39.6V39.852H49.4444V39.6C49.4444 39.504 49.4084 39.423 49.3364 39.357C49.2704 39.285 49.1894 39.249 49.0934 39.249H44.7734C44.6774 39.249 44.5934 39.285 44.5214 39.357C44.4554 39.423 44.4224 39.504 44.4224 39.6V41.049C44.4224 41.145 44.4554 41.226 44.5214 41.292C44.5934 41.358 44.6774 41.391 44.7734 41.391H49.0934C49.2914 41.391 49.4714 41.442 49.6334 41.544C49.8014 41.64 49.9334 41.769 50.0294 41.931C50.1254 42.093 50.1734 42.273 50.1734 42.471V43.92C50.1734 44.118 50.1254 44.301 50.0294 44.469C49.9334 44.631 49.8014 44.76 49.6334 44.856C49.4714 44.952 49.2914 45 49.0934 45H44.7734Z" fill="white"/>
<path d="M6.95656 49.1365L0.569949 0.5H62.4357L56.54 49.1399L31.9983 58.4658L6.95656 49.1365Z" stroke="white"/>
</svg>
